<svg xmlns="http://www.w3.org/2000/svg" style="display: none;"><symbol id="cancel" viewBox="0 0 475.2 475.2"><title>cancel</title><path d="M405.6,69.6C360.7,24.7,301.1,0,237.6,0s-123.1,24.7-168,69.6S0,174.1,0,237.6s24.7,123.1,69.6,168s104.5,69.6,168,69.6 s123.1-24.7,168-69.6s69.6-104.5,69.6-168S450.5,114.5,405.6,69.6z M386.5,386.5c-39.8,39.8-92.7,61.7-148.9,61.7 s-109.1-21.9-148.9-61.7c-82.1-82.1-82.1-215.7,0-297.8C128.5,48.9,181.4,27,237.6,27s109.1,21.9,148.9,61.7 C468.6,170.8,468.6,304.4,386.5,386.5z" fill="#1FA0D7"/><path d="M342.3,132.9c-5.3-5.3-13.8-5.3-19.1,0l-85.6,85.6L152,132.9c-5.3-5.3-13.8-5.3-19.1,0c-5.3,5.3-5.3,13.8,0,19.1 l85.6,85.6l-85.6,85.6c-5.3,5.3-5.3,13.8,0,19.1c2.6,2.6,6.1,4,9.5,4s6.9-1.3,9.5-4l85.6-85.6l85.6,85.6c2.6,2.6,6.1,4,9.5,4 c3.5,0,6.9-1.3,9.5-4c5.3-5.3,5.3-13.8,0-19.1l-85.4-85.6l85.6-85.6C347.6,146.7,347.6,138.2,342.3,132.9z" fill="#1FA0D7"/></symbol><symbol id="avatar" viewBox="0 0 482.9 482.9"><title>avatar</title><path d="M239.7,260.2c0.5,0,1,0,1.6,0c0.2,0,0.4,0,0.6,0c0.3,0,0.7,0,1,0c29.3-0.5,53-10.8,70.5-30.5 c38.5-43.4,32.1-117.8,31.4-124.9c-2.5-53.3-27.7-78.8-48.5-90.7C280.8,5.2,262.7,0.4,242.5,0h-0.7c-0.1,0-0.3,0-0.4,0h-0.6 c-11.1,0-32.9,1.8-53.8,13.7c-21,11.9-46.6,37.4-49.1,91.1c-0.7,7.1-7.1,81.5,31.4,124.9C186.7,249.4,210.4,259.7,239.7,260.2z M164.6,107.3c0-0.3,0.1-0.6,0.1-0.8c3.3-71.7,54.2-79.4,76-79.4h0.4c0.2,0,0.5,0,0.8,0c27,0.6,72.9,11.6,76,79.4 c0,0.3,0,0.6,0.1,0.8c0.1,0.7,7.1,68.7-24.7,104.5c-12.6,14.2-29.4,21.2-51.5,21.4c-0.2,0-0.3,0-0.5,0l0,0c-0.2,0-0.3,0-0.5,0 c-22-0.2-38.9-7.2-51.4-21.4C157.7,176.2,164.5,107.9,164.6,107.3z" fill="#1FA0D7"/><path d="M446.8,383.6c0-0.1,0-0.2,0-0.3c0-0.8-0.1-1.6-0.1-2.5c-0.6-19.8-1.9-66.1-45.3-80.9c-0.3-0.1-0.7-0.2-1-0.3 c-45.1-11.5-82.6-37.5-83-37.8c-6.1-4.3-14.5-2.8-18.8,3.3c-4.3,6.1-2.8,14.5,3.3,18.8c1.7,1.2,41.5,28.9,91.3,41.7 c23.3,8.3,25.9,33.2,26.6,56c0,0.9,0,1.7,0.1,2.5c0.1,9-0.5,22.9-2.1,30.9c-16.2,9.2-79.7,41-176.3,41 c-96.2,0-160.1-31.9-176.4-41.1c-1.6-8-2.3-21.9-2.1-30.9c0-0.8,0.1-1.6,0.1-2.5c0.7-22.8,3.3-47.7,26.6-56 c49.8-12.8,89.6-40.6,91.3-41.7c6.1-4.3,7.6-12.7,3.3-18.8c-4.3-6.1-12.7-7.6-18.8-3.3c-0.4,0.3-37.7,26.3-83,37.8 c-0.4,0.1-0.7,0.2-1,0.3c-43.4,14.9-44.7,61.2-45.3,80.9c0,0.9,0,1.7-0.1,2.5c0,0.1,0,0.2,0,0.3c-0.1,5.2-0.2,31.9,5.1,45.3 c1,2.6,2.8,4.8,5.2,6.3c3,2,74.9,47.8,195.2,47.8s192.2-45.9,195.2-47.8c2.3-1.5,4.2-3.7,5.2-6.3 C447,415.5,446.9,388.8,446.8,383.6z" fill="#1FA0D7"/></symbol><symbol id="smartphone-call" viewBox="0 0 35 35"><title>smartphone-call</title><path d="M25.302,0H9.698c-1.3,0-2.364,1.063-2.364,2.364v30.271C7.334,33.936,8.398,35,9.698,35h15.604 c1.3,0,2.364-1.062,2.364-2.364V2.364C27.666,1.063,26.602,0,25.302,0z M15.004,1.704h4.992c0.158,0,0.286,0.128,0.286,0.287 c0,0.158-0.128,0.286-0.286,0.286h-4.992c-0.158,0-0.286-0.128-0.286-0.286C14.718,1.832,14.846,1.704,15.004,1.704z M17.5,33.818 c-0.653,0-1.182-0.529-1.182-1.183s0.529-1.182,1.182-1.182s1.182,0.528,1.182,1.182S18.153,33.818,17.5,33.818z M26.021,30.625 H8.979V3.749h17.042V30.625z" fill="#1FA0D7"/></symbol><symbol id="spinner-of-dots" viewBox="0 0 456.817 456.817"><title>spinner-of-dots</title><path d="M109.641,324.332c-11.423,0-21.13,3.997-29.125,11.991c-7.992,8.001-11.991,17.706-11.991,29.129 c0,11.424,3.996,21.129,11.991,29.13c7.998,7.994,17.705,11.991,29.125,11.991c11.231,0,20.889-3.997,28.98-11.991 c8.088-7.991,12.132-17.706,12.132-29.13c0-11.423-4.043-21.121-12.132-29.129C130.529,328.336,120.872,324.332,109.641,324.332z" fill="#1FA0D7"/><path d="M100.505,237.542c0-12.562-4.471-23.313-13.418-32.267c-8.946-8.946-19.702-13.418-32.264-13.418 c-12.563,0-23.317,4.473-32.264,13.418c-8.945,8.947-13.417,19.701-13.417,32.267c0,12.56,4.471,23.309,13.417,32.258 c8.947,8.949,19.701,13.422,32.264,13.422c12.562,0,23.318-4.473,32.264-13.422C96.034,260.857,100.505,250.102,100.505,237.542z" fill="#1FA0D7"/><path d="M365.454,132.48c6.276,0,11.662-2.24,16.129-6.711c4.473-4.475,6.714-9.854,6.714-16.134 c0-6.283-2.241-11.658-6.714-16.13c-4.47-4.475-9.853-6.711-16.129-6.711c-6.283,0-11.663,2.24-16.136,6.711 c-4.47,4.473-6.707,9.847-6.707,16.13s2.237,11.659,6.707,16.134C353.791,130.244,359.171,132.48,365.454,132.48z" fill="#1FA0D7"/><path d="M109.644,59.388c-13.897,0-25.745,4.902-35.548,14.703c-9.804,9.801-14.703,21.65-14.703,35.544 c0,13.899,4.899,25.743,14.703,35.548c9.806,9.804,21.654,14.705,35.548,14.705s25.743-4.904,35.544-14.705 c9.801-9.805,14.703-21.652,14.703-35.548c0-13.894-4.902-25.743-14.703-35.544C135.387,64.29,123.538,59.388,109.644,59.388z" fill="#1FA0D7"/><path d="M439.684,218.125c-5.328-5.33-11.799-7.992-19.41-7.992c-7.618,0-14.089,2.662-19.417,7.992 c-5.325,5.33-7.987,11.803-7.987,19.421c0,7.61,2.662,14.092,7.987,19.41c5.331,5.332,11.799,7.994,19.417,7.994 c7.611,0,14.086-2.662,19.41-7.994c5.332-5.324,7.991-11.8,7.991-19.41C447.675,229.932,445.02,223.458,439.684,218.125z" fill="#1FA0D7"/><path d="M365.454,333.473c-8.761,0-16.279,3.138-22.562,9.421c-6.276,6.276-9.418,13.798-9.418,22.559 c0,8.754,3.142,16.276,9.418,22.56c6.283,6.282,13.802,9.417,22.562,9.417c8.754,0,16.272-3.141,22.555-9.417 c6.283-6.283,9.422-13.802,9.422-22.56c0-8.761-3.139-16.275-9.422-22.559C381.727,336.61,374.208,333.473,365.454,333.473z" fill="#1FA0D7"/><path d="M237.547,383.717c-10.088,0-18.702,3.576-25.844,10.715c-7.135,7.139-10.705,15.748-10.705,25.837 s3.566,18.699,10.705,25.837c7.142,7.139,15.752,10.712,25.844,10.712c10.089,0,18.699-3.573,25.838-10.712 c7.139-7.138,10.708-15.748,10.708-25.837s-3.569-18.698-10.708-25.837S247.636,383.717,237.547,383.717z" fill="#1FA0D7"/><path d="M237.547,0c-15.225,0-28.174,5.327-38.834,15.986c-10.657,10.66-15.986,23.606-15.986,38.832 c0,15.227,5.327,28.167,15.986,38.828c10.66,10.657,23.606,15.987,38.834,15.987c15.232,0,28.172-5.327,38.828-15.987 c10.656-10.656,15.985-23.601,15.985-38.828c0-15.225-5.329-28.168-15.985-38.832C265.719,5.33,252.779,0,237.547,0z" fill="#1FA0D7"/></symbol></svg>