<svg xmlns="http://www.w3.org/2000/svg" style="display: none;"><symbol id="call" viewBox="0 0 512.042 512.042"><title>call</title><g transform="translate(0 -1)"> <g transform="translate(1 2)"> <path style="fill:#1FA0D7" d="M499.389,430.229l-26.027,43.349c-4.39,7.359-10.476,13.561-17.749,18.091 c-4.15,2.614-8.665,4.598-13.397,5.888c-43.179,11.861-138.496,14.336-291.243-138.496S0.616,110.997,12.477,67.818 c1.29-4.732,3.274-9.247,5.888-13.397c4.53-7.274,10.732-13.359,18.091-17.749l43.349-26.027 c9.899-5.927,22.707-3.035,29.099,6.571l37.632,56.32l31.488,47.275c6.226,9.447,4.187,22.088-4.693,29.099l-10.411,8.107 l-28.416,22.016c-8.363,6.532-10.781,18.151-5.717,27.477c11.435,20.48,22.187,44.629,75.605,98.133s77.653,64.171,98.133,75.605 c9.326,5.063,20.945,2.646,27.477-5.717l22.016-28.416l8.107-10.411c7.011-8.881,19.651-10.919,29.099-4.693l48.725,32.512 l54.869,36.608C502.423,407.522,505.316,420.33,499.389,430.229z" data-original="#A4C2F7" class="" data-old_color="#A4C2F7"/> <path style="fill:#E3E7F2;" d="M482.322,447.295l-26.027,43.349c-0.256,0.341-0.427,0.683-0.683,1.024 c-4.15,2.614-8.665,4.598-13.397,5.888c-43.179,11.861-138.496,14.336-291.243-138.496S0.616,110.997,12.477,67.818 c1.29-4.732,3.274-9.247,5.888-13.397c0.341-0.256,0.683-0.427,1.024-0.683l43.349-26.027c9.899-5.927,22.707-3.035,29.099,6.571 l37.632,56.32l31.488,47.275c6.15,9.464,4.12,22.049-4.693,29.099l-28.587,22.187l-10.24,7.936 c-8.382,6.52-10.803,18.155-5.717,27.477c11.435,20.48,22.187,44.629,75.605,98.133s77.653,64.171,98.133,75.605 c9.323,5.086,20.957,2.665,27.477-5.717l7.936-10.24l22.187-28.587c7.05-8.814,19.635-10.843,29.099-4.693l48.725,32.512 l54.869,36.608C485.357,424.588,488.249,437.397,482.322,447.295z" data-original="#E3E7F2" class=""/> <path style="fill:#FFFFFF;" d="M417.179,501.943c-52.437-4.087-131.985-34.202-240.64-142.882 C23.741,206.314,26.216,110.997,38.077,67.818c1.29-4.732,3.274-9.247,5.888-13.397c4.53-7.274,10.732-13.359,18.091-17.749 l41.532-24.934c-6.996-5.086-16.349-5.516-23.782-1.092L36.456,36.671c-7.359,4.39-13.561,10.476-18.091,17.749 c-2.614,4.15-4.598,8.665-5.888,13.397C0.616,110.997-1.859,206.314,150.973,359.061 C279.058,487.223,366.781,506.158,417.179,501.943z" data-original="#FFFFFF" class=""/> </g> <g> <path style="fill:#FFFFFF;" d="M145.914,367.119c-26.431-26.455-51.094-54.619-73.83-84.309 c-23.465-30.421-42.592-63.953-56.832-99.635c-7.067-18.195-11.84-37.2-14.208-56.576c-2.258-19.781-0.846-39.808,4.164-59.076 l16.452,4.514c-4.437,17.207-5.672,35.083-3.644,52.736c2.221,17.947,6.661,35.55,13.218,52.403 c13.679,34.181,32.033,66.299,54.537,95.437c22.242,29.037,46.366,56.582,72.218,82.458L145.914,367.119z" data-original="#FFFFFF" class=""/> <g> <path style="fill:#1FA0D7" d="M1.052,126.59c2.368,19.376,7.141,38.381,14.208,56.576c14.24,35.682,33.367,69.215,56.832,99.635 c1.644,2.372,3.385,4.671,5.222,6.895c2.948,3.723,8.343,4.381,12.1,1.476c3.667-2.882,4.308-8.189,1.434-11.861 c-1.792-2.167-3.499-4.403-5.12-6.707c-22.49-29.146-40.83-61.27-54.494-95.454c-6.555-16.845-10.995-34.439-13.218-52.378 c-2.025-17.639-0.79-35.501,3.644-52.693c3.109-10.986,10.351-20.341,20.207-26.103l43.341-26.001 c5.982-3.605,13.742-1.859,17.604,3.959l69.12,103.637c3.774,5.707,2.534,13.356-2.85,17.579l-38.801,30.182 c-11.808,9.029-15.18,25.366-7.91,38.332l3.081,5.598c10.906,20.002,24.465,44.885,73.967,94.379s74.377,63.053,94.37,73.958 l5.606,3.089c12.966,7.269,29.303,3.898,38.332-7.91l30.182-38.801c4.224-5.381,11.87-6.62,17.579-2.85l103.637,69.12 c5.819,3.863,7.564,11.622,3.959,17.604l-26.001,43.341c-5.76,9.845-15.109,17.075-26.086,20.173 c-52.497,14.413-144.213,2.475-283.008-136.32l-23.424-24.397c-3.239-3.36-8.554-3.564-12.041-0.461 c-1.691,1.525-2.693,3.669-2.78,5.944c-0.087,2.275,0.75,4.489,2.319,6.139l23.851,24.849 c115.004,114.995,200.619,145.92,259.465,145.92c13.543,0.058,27.033-1.704,40.107-5.239 c15.212-4.264,28.18-14.256,36.181-27.878l26.061-43.315c8.301-13.791,4.282-31.672-9.122-40.585l-103.646-69.12 c-13.153-8.701-30.784-5.838-40.508,6.579l-30.191,38.818c-3.881,5.116-10.933,6.6-16.546,3.482l-5.743-3.166 c-19.038-10.377-42.726-23.296-90.453-71.04c-47.727-47.744-60.672-71.45-71.049-90.453l-3.149-5.743 c-3.161-5.612-1.705-12.695,3.413-16.606l38.793-30.182c12.412-9.725,15.279-27.351,6.588-40.508l-69.12-103.646 C108.086,1.039,90.217-2.983,76.427,5.306L33.086,31.341C19.468,39.349,9.475,52.314,5.2,67.523 C0.198,86.79-1.208,106.814,1.052,126.59z" data-original="#428DFF" class="active-path" data-old_color="#428DFF"/> <path style="fill:#1FA0D7" d="M106.251,302.531c-1.103-0.076-2.21,0.063-3.26,0.41c-1.065,0.317-2.057,0.842-2.918,1.545 c-1.725,1.487-2.83,3.566-3.098,5.828c-0.1,2.262,0.666,4.478,2.142,6.195c1.534,1.696,3.646,2.758,5.922,2.978l1.647-0.068 c0.586-0.061,1.161-0.205,1.707-0.427c0.526-0.132,1.029-0.342,1.493-0.623c0.489-0.296,0.957-0.627,1.399-0.99 c1.679-1.504,2.73-3.585,2.944-5.828c0.213-4.655-3.3-8.643-7.945-9.02H106.251z" data-original="#428DFF" class="active-path" data-old_color="#428DFF"/> <path style="fill:#1FA0D7" d="M290.128,86.373c80.081,0.089,144.977,64.986,145.067,145.067c0,4.713,3.82,8.533,8.533,8.533 s8.533-3.82,8.533-8.533c-0.099-89.503-72.631-162.035-162.133-162.133c-4.713,0-8.533,3.821-8.533,8.533 S285.415,86.373,290.128,86.373z" data-original="#428DFF" class="active-path" data-old_color="#428DFF"/> <path style="fill:#1FA0D7" d="M290.128,137.573c51.816,0.061,93.806,42.051,93.867,93.867c0,4.713,3.821,8.533,8.533,8.533 c4.713,0,8.533-3.82,8.533-8.533c-0.071-61.238-49.696-110.863-110.933-110.933c-4.713,0-8.533,3.821-8.533,8.533 C281.594,133.752,285.415,137.573,290.128,137.573z" data-original="#428DFF" class="active-path" data-old_color="#428DFF"/> <path style="fill:#1FA0D7" d="M290.128,188.773c23.552,0.028,42.638,19.114,42.667,42.667c0,4.713,3.82,8.533,8.533,8.533 s8.533-3.82,8.533-8.533c-0.038-32.974-26.759-59.696-59.733-59.733c-4.713,0-8.533,3.821-8.533,8.533 C281.594,184.952,285.415,188.773,290.128,188.773z" data-original="#428DFF" class="active-path" data-old_color="#428DFF"/> </g> </g> </g></symbol><symbol id="viber" viewBox="0 0 512 512"><title>viber</title><path style="fill:#665CAC;" d="M307.207,0H204.794C105.969,0,25.571,80.398,25.571,179.223v76.81 c0,69.381,40.014,132.344,102.413,161.961v85.537c0,7.427,9.291,11.31,14.569,6.035l74.309-74.31h90.344 c98.824,0,179.223-80.398,179.223-179.223v-76.81C486.429,80.398,406.03,0,307.207,0z"/><path style="fill:#523494;" d="M153.587,417.993c-62.399-29.618-102.413-92.58-102.413-161.961v-76.81 C51.174,80.398,131.573,0,230.397,0h-25.603C105.969,0,25.571,80.398,25.571,179.223v76.81c0,69.381,40.014,132.344,102.413,161.961 v85.537c0,7.427,9.291,11.31,14.569,6.035l11.034-11.034V417.993z"/><path style="fill:#FFFFFF;" d="M384.85,318.101l-7.673-41.566c-0.635-3.434-3.295-6.135-6.719-6.82l-60.347-12.069 c-2.803-0.558-5.691,0.317-7.71,2.334l-24.517,24.518c-41.308-18.509-64.234-41.485-84.406-84.566l24.438-24.437 c2.017-2.018,2.893-4.912,2.334-7.71l-12.069-60.348c-0.685-3.423-3.386-6.085-6.82-6.719l-41.566-7.672 c-1.138-0.209-2.31-0.187-3.44,0.07c-10.975,2.493-20.989,8.023-28.96,15.996c-13.802,13.802-19.077,33.942-15.253,58.243 c6.419,40.806,26.411,97.594,63.296,134.627l0.504,0.5c37.004,36.859,93.793,56.853,134.601,63.273 c5.141,0.81,10.092,1.211,14.84,1.211c17.695,0,32.52-5.582,43.405-16.465c7.971-7.972,13.503-17.986,15.995-28.959 C385.036,320.411,385.06,319.241,384.85,318.101z"/><g> <polygon style="fill:#E5E5E5;" points="209.571,183.839 217.915,175.494 217.924,175.485 209.57,183.838 "/> <rect x="292.235" y="264.183" transform="matrix(0.7071 -0.7071 0.7071 0.7071 -99.4675 288.2322)" style="fill:#E5E5E5;" width="11.916" height="0.002"/> <path style="fill:#E5E5E5;" d="M341.473,350.871c-4.748,0-9.699-0.401-14.84-1.211c-40.807-6.42-97.596-26.414-134.601-63.273 l-0.504-0.5c-36.885-37.033-56.877-93.821-63.296-134.627c-3.089-19.633-0.233-36.548,8.256-49.601 c-3.251,2.169-6.302,4.657-9.097,7.452c-13.802,13.802-19.077,33.942-15.253,58.243c6.419,40.806,26.411,97.594,63.296,134.627 l0.504,0.5c37.004,36.859,93.793,56.853,134.601,63.273c5.141,0.81,10.092,1.211,14.84,1.211c17.695,0,32.52-5.581,43.405-16.465 c2.794-2.795,5.282-5.845,7.451-9.096C366.598,347.672,354.858,350.871,341.473,350.871z"/> </g><g> <path style="fill:#FFFFFF;" d="M273.069,145.085c-4.713,0-8.534,3.821-8.534,8.534s3.821,8.534,8.534,8.534 c18.824,0,34.138,15.314,34.138,34.138c0,4.65,3.884,8.534,8.534,8.534s8.534-3.884,8.534-8.534 C324.276,168.055,301.305,145.085,273.069,145.085z"/> <path style="fill:#FFFFFF;" d="M273.069,110.947c-3.157,0-6.343,0.175-9.471,0.52c-4.685,0.517-8.064,4.734-7.547,9.42 s4.743,8.056,9.42,7.547c2.508-0.277,5.064-0.418,7.598-0.418c37.647,0,68.275,30.628,68.275,68.275 c0,2.535-0.141,5.091-0.418,7.599c-0.51,4.621,2.924,8.911,7.547,9.42c4.622,0.509,8.909-2.924,9.42-7.547 c0.345-3.128,0.52-6.314,0.52-9.472C358.413,149.233,320.128,110.947,273.069,110.947z"/> <path style="fill:#FFFFFF;" d="M273.069,76.81c-3.05,0-6.139,0.116-9.179,0.347c-4.7,0.356-8.222,4.456-7.866,9.155 c0.355,4.7,4.469,8.222,9.155,7.866c2.613-0.199,5.268-0.299,7.89-0.299c56.471,0,102.413,45.942,102.413,102.413 c0,7.99-0.922,15.944-2.74,23.64c-1.043,4.41,1.673,8.994,6.046,10.192c4.601,1.26,9.469-1.625,10.565-6.266 c2.122-8.981,3.198-18.255,3.198-27.566C392.551,130.409,338.952,76.81,273.069,76.81z"/> </g></symbol><symbol id="whatsapp" viewBox="0 0 512 512"><title>whatsapp</title><path style="fill:#4CAF50;" d="M256.064,0h-0.128l0,0C114.784,0,0,114.816,0,256c0,56,18.048,107.904,48.736,150.048l-31.904,95.104 l98.4-31.456C155.712,496.512,204,512,256.064,512C397.216,512,512,397.152,512,256S397.216,0,256.064,0z"/><path style="fill:#FAFAFA;" d="M405.024,361.504c-6.176,17.44-30.688,31.904-50.24,36.128c-13.376,2.848-30.848,5.12-89.664-19.264 C189.888,347.2,141.44,270.752,137.664,265.792c-3.616-4.96-30.4-40.48-30.4-77.216s18.656-54.624,26.176-62.304 c6.176-6.304,16.384-9.184,26.176-9.184c3.168,0,6.016,0.16,8.576,0.288c7.52,0.32,11.296,0.768,16.256,12.64 c6.176,14.88,21.216,51.616,23.008,55.392c1.824,3.776,3.648,8.896,1.088,13.856c-2.4,5.12-4.512,7.392-8.288,11.744 c-3.776,4.352-7.36,7.68-11.136,12.352c-3.456,4.064-7.36,8.416-3.008,15.936c4.352,7.36,19.392,31.904,41.536,51.616 c28.576,25.44,51.744,33.568,60.032,37.024c6.176,2.56,13.536,1.952,18.048-2.848c5.728-6.176,12.8-16.416,20-26.496 c5.12-7.232,11.584-8.128,18.368-5.568c6.912,2.4,43.488,20.48,51.008,24.224c7.52,3.776,12.48,5.568,14.304,8.736 C411.2,329.152,411.2,344.032,405.024,361.504z"/></symbol><symbol id="telegram" viewBox="0 0 512 512"><title>telegram</title><circle style="fill:#59AAE7;" cx="256" cy="256" r="256"/><path style="fill:#3D9AE3;" d="M256,0c-11.317,0-22.461,0.744-33.391,2.167C348.216,18.53,445.217,125.933,445.217,256 s-97.002,237.47-222.609,253.833C233.539,511.256,244.683,512,256,512c141.385,0,256-114.616,256-256S397.385,0,256,0z"/><path style="fill:#FCFCFC;" d="M164.689,311.141L82.127,269.86c-2.263-1.132-2.285-4.353-0.038-5.516L395.75,102.105 c2.304-1.192,4.964,0.811,4.456,3.355l-54.004,270.017c-0.385,1.927-2.446,3.011-4.253,2.237l-73.393-31.453 c-0.879-0.377-1.884-0.326-2.721,0.139l-94.839,52.688c-2.062,1.145-4.597-0.345-4.597-2.705v-82.474 C166.4,312.736,165.738,311.665,164.689,311.141z"/><path style="fill:#D8D7DA;" d="M200.31,338.967l-0.513-82.428c-0.003-0.528,0.27-1.018,0.72-1.293l133.899-81.798 c1.518-0.927,3.106,1.083,1.852,2.345l-101.9,102.624c-0.112,0.114-0.207,0.244-0.278,0.387l-17.43,34.858l-13.509,25.988 C202.426,341.045,200.32,340.538,200.31,338.967z"/></symbol></svg>