<svg xmlns="http://www.w3.org/2000/svg">
    <symbol id="svg-icon__angle-left" viewBox="0 0 14 34">
        <path d="M12.001 33.5c-.484 0-.96-.234-1.249-.668l-10-15a1.5 1.5 0 0 1 0-1.664l10-15a1.5 1.5 0 0 1 2.496 1.664L3.803 17l9.445 14.168a1.5 1.5 0 0 1-1.247 2.332z" fill="currentColor"/>
    </symbol>
    <symbol id="svg-icon__angle-right" viewBox="0 0 14 34">
        <path d="M1.999 33.5a1.5 1.5 0 0 1-1.247-2.332L10.197 17 .752 2.832a1.5 1.5 0 0 1 2.496-1.664l10 15a1.5 1.5 0 0 1 0 1.664l-10 15a1.497 1.497 0 0 1-1.249.668z" fill="currentColor"/>
    </symbol>
    <symbol id="svg-icon__arrow-big-left" viewBox="0 0 14 34">
        <path d="M12.001 33.5c-.484 0-.96-.234-1.249-.668l-10-15a1.5 1.5 0 0 1 0-1.664l10-15a1.5 1.5 0 0 1 2.496 1.664L3.803 17l9.445 14.168a1.5 1.5 0 0 1-1.247 2.332z" fill="currentColor"/>
    </symbol>
    <symbol id="svg-icon__arrow-big-right" viewBox="0 0 14 34">
        <path d="M1.999 33.5a1.5 1.5 0 0 1-1.247-2.332L10.197 17 .752 2.832a1.5 1.5 0 0 1 2.496-1.664l10 15a1.5 1.5 0 0 1 0 1.664l-10 15a1.497 1.497 0 0 1-1.249.668z" fill="currentColor"/>
    </symbol>
    <symbol id="svg-icon__arrow-right" viewBox="0 0 2.993 7.001">
        <path d="M2.991 3.501c0-.032.006-.064 0-.096a.504.504 0 0 0-.075-.181v-.001l-2-3a.5.5 0 1 0-.832.555l1.815 2.723L.084 6.223a.5.5 0 1 0 .833.555l2-3v-.001a.485.485 0 0 0 .074-.181c.006-.031 0-.063 0-.095z"/>
    </symbol>
    <symbol id="svg-icon__cart-thin" viewBox="0 0 26 25">
        <path fill-rule="evenodd" clip-rule="evenodd" d="M7 8a6 6 0 0 1 12 0 1 1 0 1 0 2 0A8 8 0 1 0 5 8a1 1 0 1 0 2 0zm-6 3a1 1 0 0 0-.923 1.385l5 12A1 1 0 0 0 6 25h14a1 1 0 0 0 .923-.615l5-12A1 1 0 0 0 25 11H1zm5.667 12L2.5 13h21l-4.167 10H6.667z" fill="currentColor"/>
    </symbol>
    <symbol id="svg-icon__compare-thin" viewBox="0 0 23 22">
        <path fill-rule="evenodd" clip-rule="evenodd" d="M23 1a1 1 0 1 0-2 0v20a1 1 0 1 0 2 0V1zm-7 8a1 1 0 1 0-2 0v12a1 1 0 1 0 2 0V9zM8 4a1 1 0 0 1 1 1v16a1 1 0 1 1-2 0V5a1 1 0 0 1 1-1zm-6 7a1 1 0 1 0-2 0v10a1 1 0 1 0 2 0V11z" fill="currentColor"/>
    </symbol>
    <symbol id="svg-icon__compare" viewBox="0 0 15 15">
        <path fill-rule="evenodd" clip-rule="evenodd" d="M14.601 1a1 1 0 1 0-2 0v12.002a1 1 0 0 0 2 0V1zm-4.2 4.8a1 1 0 0 0-2 0v7.201a1 1 0 1 0 2 0v-7.2zM5.2 2.4a1 1 0 0 1 1 1v9.601a1 1 0 0 1-2 0v-9.6a1 1 0 0 1 1-1zM2 7a1 1 0 0 0-2 0v6.002a1 1 0 0 0 2 0V7z" fill="currentColor"/>
    </symbol>
    <symbol id="svg-icon__hamburger" viewBox="0 0 20 12">
        <path fill-rule="evenodd" clip-rule="evenodd" d="M2 0a2 2 0 0 0 0 4h10a2 2 0 1 0 0-4H2zm0 8a2 2 0 0 0 0 4h16a2 2 0 1 0 0-4H2z" fill="currentColor"/>
    </symbol>
    <symbol id="svg-icon__heart-thin" viewBox="0 0 24 22">
        <path fill-rule="evenodd" clip-rule="evenodd" d="M11.102 4.556a5.354 5.354 0 0 0-1.551-1.783c-.805-.58-1.89-.977-3.319-.66-1.94.429-2.998 1.473-3.579 2.592-.603 1.159-.712 2.446-.628 3.284.438 4.361 4.373 8.966 9.975 11.889 5.602-2.923 9.537-7.528 9.975-11.89.084-.837-.025-2.124-.628-3.283-.581-1.119-1.64-2.163-3.58-2.593-1.428-.316-2.513.081-3.318.661a5.355 5.355 0 0 0-1.551 1.783.996.996 0 0 1-1.298.476.998.998 0 0 1-.498-.476zM12 2.341a7.232 7.232 0 0 0-1.28-1.19C9.534.296 7.876-.3 5.8.16 3.252.723 1.718 2.167.878 3.782.06 5.357-.08 7.05.035 8.188c.547 5.453 5.385 10.65 11.509 13.702A.993.993 0 0 0 12 22a.994.994 0 0 0 .456-.11c6.124-3.052 10.962-8.249 11.51-13.702.114-1.138-.026-2.831-.844-4.406C22.282 2.167 20.748.723 18.2.16c-2.076-.459-3.734.137-4.92.992A7.23 7.23 0 0 0 12 2.341z" fill="currentColor"/>
    </symbol>
    <symbol id="svg-icon__heart" viewBox="0 0 16 14">
        <path fill-rule="evenodd" clip-rule="evenodd" d="M6.702 3.31a2.818 2.818 0 0 0-.806-.921c-.407-.294-.943-.492-1.67-.331-1.043.23-1.582.778-1.88 1.349a3.275 3.275 0 0 0-.333 1.746c.239 2.38 2.387 4.996 5.586 6.72 3.2-1.724 5.347-4.34 5.586-6.72a3.276 3.276 0 0 0-.333-1.746c-.297-.571-.837-1.118-1.88-1.349-.727-.161-1.263.037-1.67.33a2.84 2.84 0 0 0-.806.923.998.998 0 0 1-1.297.475.998.998 0 0 1-.497-.475zm.897-2.093a4.61 4.61 0 0 0-.534-.45C6.277.197 5.168-.2 3.793.104 2.143.47 1.127 1.416.572 2.485a5.272 5.272 0 0 0-.55 2.868c.349 3.465 3.39 6.675 7.12 8.536a.991.991 0 0 0 .457.11.996.996 0 0 0 .456-.11c3.73-1.861 6.773-5.07 7.12-8.536a5.272 5.272 0 0 0-.549-2.868c-.555-1.069-1.57-2.015-3.221-2.38-1.375-.304-2.484.093-3.272.661a4.61 4.61 0 0 0-.534.451z" fill="currentColor"/>
    </symbol>
    <symbol id="svg-icon__kyivstar" viewBox="0 0 10 10">
        <path fill-rule="evenodd" clip-rule="evenodd" d="M5 0a.66.66 0 0 1 .658.658v2.446A.66.66 0 0 1 5 3.762a.66.66 0 0 1-.658-.658V.658A.66.66 0 0 1 5 0zM.032 3.61a.66.66 0 0 1 .829-.423l2.326.756a.66.66 0 0 1 .422.829.66.66 0 0 1-.829.422L.454 4.44a.66.66 0 0 1-.422-.83zm1.752 4.92a.66.66 0 0 0 .146.92.66.66 0 0 0 .919-.146l1.437-1.979a.66.66 0 0 0-.145-.918.66.66 0 0 0-.92.145L1.785 8.531zm6.286.92a.66.66 0 0 1-.919-.146L5.714 7.325a.66.66 0 0 1 .145-.919.66.66 0 0 1 .92.146L8.215 8.53a.66.66 0 0 1-.146.918zm1.476-5.012a.66.66 0 0 0 .422-.829.66.66 0 0 0-.829-.422l-2.326.756a.66.66 0 0 0-.423.829.66.66 0 0 0 .83.422l2.326-.756z" fill="currentColor"/>
    </symbol>
    <symbol id="svg-icon__lifecell" viewBox="0 0 10 10">
        <path d="M0 5a5 5 0 0 1 5-5 4.999 4.999 0 1 1 0 9.999c-.546 0-1.07-.087-1.561-.247.355-2.064 1.658-3.747 3.38-4.461a1.11 1.11 0 0 0 1.952-.727 1.11 1.11 0 0 0-2.222-.002c-2.197.66-3.978 2.195-4.881 4.166a4.985 4.985 0 0 1-.764-.86C.956 5.947 1.905 4.27 3.327 3.28a1.112 1.112 0 1 0-.276-.643C1.726 3.103.639 4.022.003 5.193A3.923 3.923 0 0 1 0 5z" fill="currentColor"/>
    </symbol>
    <symbol id="svg-icon__rotate" viewBox="0 0 15 17">
        <path fill-rule="evenodd" clip-rule="evenodd" d="M6.226.32a1 1 0 0 0-1.465 1.36l.546.589a7.277 7.277 0 1 0 9.248 7.007 1 1 0 1 0-2 0A5.277 5.277 0 1 1 5.21 4.42l-.137.23a1 1 0 1 0 1.716 1.026l1.154-1.93a.998.998 0 0 0 .33-.84 1 1 0 0 0-.267-.668L6.226.32z" fill="currentColor"/>
    </symbol>
    <symbol id="svg-icon__search" viewBox="0 0 19 19">
        <path fill-rule="evenodd" clip-rule="evenodd" d="M12.17 7.085a5.085 5.085 0 1 1-10.17 0 5.085 5.085 0 0 1 10.17 0zm-.833 5.666a7.085 7.085 0 1 1 1.414-1.414l4.96 4.959a1 1 0 0 1-1.415 1.414l-4.959-4.959z" fill="currentColor"/>
    </symbol>
    <symbol id="svg-icon__star" viewBox="0 0 520.08 494.03">
        <path class="cls-1" d="M497.58 198.08c0-7-162.31-27-162.31-27S265.75 22.51 260.04 22.51s-75.23 148.6-75.23 148.6S22.5 191.04 22.5 198.08c0 4 117.06 114.77 117.06 114.77s-30.12 155.84-28.12 158.6 148.6-74.67 148.6-74.67 146.33 77.43 148.33 74.67-27.87-158.59-27.87-158.59 117.08-110.59 117.08-114.78z"/>
    </symbol>
    <symbol id="svg-icon__vodafone" viewBox="0 0 10 10">
        <path d="M2.828.492C4.155-.155 5.764-.16 7.103.455 6.067.37 5.033.712 4.17 1.272a4.34 4.34 0 0 0-1.823 2.53c-.19.733-.158 1.532.145 2.23.418.997 1.434 1.739 2.528 1.742.624.006 1.253-.2 1.734-.602a2.724 2.724 0 0 0 .977-1.936c.027-.603-.121-1.235-.509-1.71C6.802 3 6.16 2.707 5.519 2.55 5.455 1.585 6.205.667 7.145.48a5.02 5.02 0 0 1 2.432 2.5 4.995 4.995 0 0 1 .238 3.357 4.992 4.992 0 0 1-1.703 2.56A4.973 4.973 0 0 1 5.023 9.98a4.997 4.997 0 0 1-4.84-3.646 5.007 5.007 0 0 1 .17-3.192A5.015 5.015 0 0 1 2.829.492z" fill="currentColor"/>
    </symbol>
</svg>