<svg xmlns="http://www.w3.org/2000/svg" style="display: none;"><symbol id="gift" viewBox="0 -29 483.1994 483"><title>gift</title><path d="m482.121094 302.898438c-3.351563-12.214844-13.59375-21.304688-26.121094-23.183594v-183.613282h16c4.417969 0 8-3.582031 8-8v-80c0-4.421874-3.582031-8-8-8h-352c-4.417969 0-8 3.578126-8 8v80c0 4.417969 3.582031 8 8 8h16v160h-8c-19.855469-.046874-39.304688 5.644532-56 16.390626v-40.390626c0-4.421874-3.582031-8-8-8h-56c-4.417969 0-8 3.578126-8 8v184c0 4.417969 3.582031 8 8 8h56c4.417969 0 8-3.582031 8-8v-40.386718c16.699219 10.738281 36.144531 16.429687 56 16.386718h131.359375c9.101563-.015624 18.160156-1.210937 26.953125-3.554687l173.207031-46.398437c17.042969-4.644532 27.140625-22.175782 22.601563-39.25zm-354.121094-286.796876h336v64h-336zm24 80h288v184.988282l-92.847656 24.898437c-3.824219-9.117187-11.625-15.964843-21.160156-18.578125l-107.792969-28.910156c-6.070313-1.597656-12.320313-2.40625-18.597657-2.398438h-47.601562zm-96 312h-40v-168h40zm399.367188-81.410156-173.175782 46.398438c-7.449218 1.988281-15.121094 3-22.832031 3.011718h-131.359375c-19.046875.042969-37.589844-6.136718-52.800781-17.601562l-3.199219-2.398438v-64l3.199219-2.402343c15.210937-11.464844 33.753906-17.648438 52.800781-17.597657h71.601562c4.886719-.003906 9.757813.628907 14.488282 1.878907l107.757812 28.886719c6.367188 1.753906 11.027344 7.210937 11.753906 13.777343.085938.328125.191407.652344.320313.96875-.09375.34375-.164063.691407-.210937 1.046875.007812 1.300782-.167969 2.597656-.527344 3.847656-1.882813 6.972657-8.199219 11.820313-15.421875 11.832032-1.410157.011718-2.808594-.167969-4.167969-.527344l-68-18.234375c-2.789062-.828125-5.808594-.078125-7.886719 1.960937-2.074219 2.039063-2.882812 5.042969-2.105469 7.847657.777344 2.800781 3.015626 4.964843 5.847657 5.640625l68 18.242187c2.714843.714844 5.515625 1.074219 8.328125 1.070313 14.382812-.007813 26.988281-9.628906 30.789062-23.503906.445313-1.605469.746094-3.246094.90625-4.902344l97.527344-26.152344c.695312-.175781 1.449219-.355469 2.160156-.472656 7.964844-1.027344 15.453125 4.007812 17.511719 11.765625.359375 1.351562.539063 2.746093.527344 4.144531.011719 7.242188-4.839844 13.585938-11.832031 15.472656zm0 0" fill="#FFFFFF"/><path d="m256 128.101562h80c4.417969 0 8-3.582031 8-8 0-4.421874-3.582031-8-8-8h-80c-4.417969 0-8 3.578126-8 8 0 4.417969 3.582031 8 8 8zm0 0" fill="#FFFFFF"/></symbol><symbol id="login" viewBox="0 0 56 56"><title>login</title><path d="M25.293,39.293c-0.391,0.391-0.391,1.023,0,1.414C25.488,40.902,25.744,41,26,41s0.512-0.098,0.707-0.293l11.999-11.999 c0.093-0.092,0.166-0.203,0.217-0.326c0.101-0.244,0.101-0.519,0-0.764c-0.051-0.123-0.125-0.234-0.217-0.327L26.707,15.293 c-0.391-0.391-1.023-0.391-1.414,0s-0.391,1.023,0,1.414L35.586,27H5c-0.553,0-1,0.447-1,1s0.447,1,1,1h30.586L25.293,39.293z" fill="#FFFFFF"/><path d="M51,0H14c-0.553,0-1,0.447-1,1v21c0,0.553,0.447,1,1,1s1-0.447,1-1V2h35v52H15V34c0-0.553-0.447-1-1-1s-1,0.447-1,1v21 c0,0.553,0.447,1,1,1h37c0.553,0,1-0.447,1-1V1C52,0.447,51.553,0,51,0z" fill="#FFFFFF"/></symbol><symbol id="add-user" viewBox="-19 -23 618.68191 618"><title>add-user</title><path d="m442.589844 296.5c-37.789063-.132812-73.9375 15.429688-99.808594 42.976562-37.210938-29.6875-83.441406-45.777343-131.042969-45.597656h-.375c-57.210937.121094-110.300781 22.359375-149.648437 62.832032-39.976563 40.851562-61.835938 96.6875-61.714844 157.273437.0234375 3.316406 1.324219 6.488281 3.625 8.867187 2.347656 2.351563 5.542969 3.660157 8.867188 3.625l327.914062-.625c.75.875 1.496094 1.625 2.25 2.5 43.050781 45.5625 111.484375 56.21875 166.355469 25.910157 54.871093-30.3125 82.285156-93.90625 66.640625-154.609375-15.644532-60.703125-70.375-103.132813-133.0625-103.152344zm-417.230469 204.867188c2.625-49.09375 21.613281-93.9375 54.214844-127.289063 34.605469-35.601563 81.449219-55.214844 131.789062-55.214844h.375c42.015625-.164062 82.828125 14.023438 115.675781 40.222657-27.675781 42.746093-29.5 97.28125-4.746093 141.785156zm417.230469 44.972656c-62.09375 0-112.425782-50.335938-112.425782-112.429688 0-62.085937 50.332032-112.425781 112.425782-112.425781s112.425781 50.339844 112.425781 112.425781c0 62.09375-50.332031 112.429688-112.425781 112.429688zm0 0" fill="#FFFFFF"/><path d="m211.488281 264.148438c72.921875 0 132.039063-59.117188 132.039063-132.039063 0-72.925781-59.117188-132.0429688-132.039063-132.0429688s-132.039062 59.1171878-132.039062 132.0429688c.070312 72.890625 59.144531 131.96875 132.039062 132.039063zm0-239.097657c59.128907 0 107.054688 47.933594 107.054688 107.058594 0 59.121094-47.925781 107.054687-107.054688 107.054687-59.125 0-107.054687-47.933593-107.054687-107.054687.070312-59.097656 47.957031-106.984375 107.054687-107.058594zm0 0" fill="#FFFFFF"/><path d="m493.183594 421.417969h-38.101563v-38.097657c0-6.902343-5.59375-12.492187-12.492187-12.492187-6.898438 0-12.492188 5.589844-12.492188 12.492187v38.097657h-38.101562c-6.898438 0-12.492188 5.59375-12.492188 12.492187 0 6.902344 5.59375 12.492188 12.492188 12.492188h38.101562v38.101562c0 6.898438 5.59375 12.492188 12.492188 12.492188 6.898437 0 12.492187-5.59375 12.492187-12.492188v-38.101562h38.101563c6.898437 0 12.488281-5.589844 12.488281-12.492188 0-6.898437-5.589844-12.492187-12.488281-12.492187zm0 0" fill="#FFFFFF"/></symbol><symbol id="key" viewBox="0 0 512 512"><title>key</title><g> <g> <path d="M334.974,0c-95.419,0-173.049,77.63-173.049,173.049c0,21.213,3.769,41.827,11.211,61.403L7.672,399.928 c-2.365,2.366-3.694,5.573-3.694,8.917v90.544c0,6.965,5.646,12.611,12.611,12.611h74.616c3.341,0,6.545-1.325,8.91-3.686 l25.145-25.107c2.37-2.366,3.701-5.577,3.701-8.925v-30.876h30.837c6.965,0,12.611-5.646,12.611-12.611v-12.36h12.361 c6.964,0,12.611-5.646,12.611-12.611v-27.136h27.136c3.344,0,6.551-1.329,8.917-3.694l40.121-40.121 c19.579,7.449,40.196,11.223,61.417,11.223c95.419,0,173.049-77.63,173.049-173.049C508.022,77.63,430.393,0,334.974,0z M334.974,320.874c-20.642,0-40.606-4.169-59.339-12.393c-4.844-2.126-10.299-0.956-13.871,2.525 c-0.039,0.037-0.077,0.067-0.115,0.106l-42.354,42.354h-34.523c-6.965,0-12.611,5.646-12.611,12.611v27.136H159.8 c-6.964,0-12.611,5.646-12.611,12.611v12.36h-30.838c-6.964,0-12.611,5.646-12.611,12.611v38.257l-17.753,17.725H29.202v-17.821 l154.141-154.14c4.433-4.433,4.433-11.619,0-16.051s-11.617-4.434-16.053,0L29.202,436.854V414.07l167.696-167.708 c0.038-0.038,0.067-0.073,0.102-0.11c3.482-3.569,4.656-9.024,2.53-13.872c-8.216-18.732-12.38-38.695-12.38-59.33 c0-81.512,66.315-147.827,147.827-147.827S482.802,91.537,482.802,173.05C482.8,254.56,416.484,320.874,334.974,320.874z" fill="#FFFFFF"/> </g> </g><g> <g> <path d="M387.638,73.144c-26.047,0-47.237,21.19-47.237,47.237s21.19,47.237,47.237,47.237s47.237-21.19,47.237-47.237 S413.686,73.144,387.638,73.144z M387.638,142.396c-12.139,0-22.015-9.876-22.015-22.015s9.876-22.015,22.015-22.015 s22.015,9.876,22.015,22.015S399.777,142.396,387.638,142.396z" fill="#FFFFFF"/> </g> </g></symbol><symbol id="product" viewBox="-32 0 511 511.99938"><title>product</title><path d="m445.316406 248.242188c-2.714844-4.496094-7.585937-7.242188-12.835937-7.242188-44.296875 0-84.851563 22.769531-107.945313 60h-177.898437c-20.03125 0-38.867188 7.800781-53.03125 21.96875l-88.714844 88.710938c-5.851563 5.855468-5.855469 15.355468 0 21.214843 36.429687 36.425781 74.660156 74.375 75.042969 74.75 5.855468 5.816407 15.304687 5.800781 21.148437-.011719l56.894531-56.632812h125.660157c39.191406 0 74.832031-21.558594 93-56.261719.457031-.871093 45.890625-87.574219 69.117187-131.757812 2.445313-4.652344 2.28125-10.238281-.4375-14.738281zm-95.253906 132.578124c-12.976562 24.785157-38.429688 40.179688-66.425781 40.179688h-131.851563c-3.96875 0-7.773437 1.570312-10.582031 4.367188l-50.714844 50.480468c-11.949219-11.875-32.511719-32.332031-53.773437-53.566406l78.101562-78.101562c8.5-8.5 19.800782-13.179688 31.820313-13.179688h161.796875l-11.511719 21.964844c-2.597656 4.957031-7.6875 8.035156-13.285156 8.035156h-101.851563c-8.285156 0-15 6.714844-15 15s6.714844 15 15 15h101.851563c16.789062 0 32.0625-9.238281 39.859375-24.109375.011718-.027344 23.152344-44.179687 23.152344-44.179687 12.5625-23.765626 34-40.820313 59.042968-47.972657-23.933594 45.59375-55.246094 105.355469-55.628906 106.082031zm0 0" fill="#1FA0D7"/><path d="m136.785156 271h180c8.28125 0 15-6.714844 15-15v-181c0-8.285156-6.71875-15-15-15h-45v-15c0-24.8125-20.1875-45-45-45s-45 20.1875-45 45v15h-45c-8.285156 0-15 6.714844-15 15v181c0 8.285156 6.714844 15 15 15zm75-226c0-8.269531 6.726563-15 15-15 8.269532 0 15 6.730469 15 15v15h-30zm-60 45h30v15c0 8.285156 6.714844 15 15 15 8.28125 0 15-6.714844 15-15v-15h30v15c0 8.285156 6.714844 15 15 15 8.28125 0 15-6.714844 15-15v-15h30v151h-150zm0 0" fill="#1FA0D7"/></symbol></svg>